solid Pot_Stand
 facet normal 0.997859 0.0654031 0
  outer loop
   vertex 55 0 0
   vertex 54.5295 7.17894 0
   vertex 54.5295 7.17894 8
  endloop
 endfacet
 facet normal 0.997859 0.0654031 -0
  outer loop
   vertex 55 0 0
   vertex 54.5295 7.17894 8
   vertex 55 0 8
  endloop
 endfacet
 facet normal -0.997859 -0.0654031 0
  outer loop
   vertex 41.6407 5.4821 0
   vertex 42 0 0
   vertex 41.6407 5.4821 8
  endloop
 endfacet
 facet normal -0.997859 -0.0654031 0
  outer loop
   vertex 42 0 0
   vertex 42 0 8
   vertex 41.6407 5.4821 8
  endloop
 endfacet
 facet normal 0 0 1
  outer loop
   vertex 55 0 8
   vertex 54.5295 7.17894 8
   vertex 41.6407 5.4821 8
  endloop
 endfacet
 facet normal 0 0 1
  outer loop
   vertex 55 0 8
   vertex 41.6407 5.4821 8
   vertex 42 0 8
  endloop
 endfacet
 facet normal 0 -0 -1
  outer loop
   vertex 54.5295 7.17894 0
   vertex 55 0 0
   vertex 41.6407 5.4821 0
  endloop
 endfacet
 facet normal 0 0 -1
  outer loop
   vertex 55 0 0
   vertex 42 0 0
   vertex 41.6407 5.4821 0
  endloop
 endfacet
 facet normal 0.980785 0.19509 0
  outer loop
   vertex 54.5295 7.17894 0
   vertex 53.1259 14.235 0
   vertex 53.1259 14.235 8
  endloop
 endfacet
 facet normal 0.980785 0.19509 -0
  outer loop
   vertex 54.5295 7.17894 0
   vertex 53.1259 14.235 8
   vertex 54.5295 7.17894 8
  endloop
 endfacet
 facet normal -0.980785 -0.19509 0
  outer loop
   vertex 40.5689 10.8704 0
   vertex 41.6407 5.4821 0
   vertex 40.5689 10.8704 8
  endloop
 endfacet
 facet normal -0.980785 -0.19509 0
  outer loop
   vertex 41.6407 5.4821 0
   vertex 41.6407 5.4821 8
   vertex 40.5689 10.8704 8
  endloop
 endfacet
 facet normal 0 0 1
  outer loop
   vertex 54.5295 7.17894 8
   vertex 53.1259 14.235 8
   vertex 40.5689 10.8704 8
  endloop
 endfacet
 facet normal 0 0 1
  outer loop
   vertex 54.5295 7.17894 8
   vertex 40.5689 10.8704 8
   vertex 41.6407 5.4821 8
  endloop
 endfacet
 facet normal 0 -0 -1
  outer loop
   vertex 53.1259 14.235 0
   vertex 54.5295 7.17894 0
   vertex 40.5689 10.8704 0
  endloop
 endfacet
 facet normal -0 0 -1
  outer loop
   vertex 54.5295 7.17894 0
   vertex 41.6407 5.4821 0
   vertex 40.5689 10.8704 0
  endloop
 endfacet
 facet normal 0.94693 0.321439 0
  outer loop
   vertex 53.1259 14.235 0
   vertex 50.8134 21.0476 0
   vertex 50.8134 21.0476 8
  endloop
 endfacet
 facet normal 0.94693 0.321439 -0
  outer loop
   vertex 53.1259 14.235 0
   vertex 50.8134 21.0476 8
   vertex 53.1259 14.235 8
  endloop
 endfacet
 facet normal -0.94693 -0.321439 0
  outer loop
   vertex 38.8029 16.0727 0
   vertex 40.5689 10.8704 0
   vertex 38.8029 16.0727 8
  endloop
 endfacet
 facet normal -0.94693 -0.321439 0
  outer loop
   vertex 40.5689 10.8704 0
   vertex 40.5689 10.8704 8
   vertex 38.8029 16.0727 8
  endloop
 endfacet
 facet normal 0 0 1
  outer loop
   vertex 53.1259 14.235 8
   vertex 50.8134 21.0476 8
   vertex 38.8029 16.0727 8
  endloop
 endfacet
 facet normal 0 0 1
  outer loop
   vertex 53.1259 14.235 8
   vertex 38.8029 16.0727 8
   vertex 40.5689 10.8704 8
  endloop
 endfacet
 facet normal 0 -0 -1
  outer loop
   vertex 50.8134 21.0476 0
   vertex 53.1259 14.235 0
   vertex 38.8029 16.0727 0
  endloop
 endfacet
 facet normal -0 0 -1
  outer loop
   vertex 53.1259 14.235 0
   vertex 40.5689 10.8704 0
   vertex 38.8029 16.0727 0
  endloop
 endfacet
 facet normal 0.896873 0.442289 0
  outer loop
   vertex 50.8134 21.0476 0
   vertex 47.6314 27.5 0
   vertex 47.6314 27.5 8
  endloop
 endfacet
 facet normal 0.896873 0.442289 -0
  outer loop
   vertex 50.8134 21.0476 0
   vertex 47.6314 27.5 8
   vertex 50.8134 21.0476 8
  endloop
 endfacet
 facet normal -0.896873 -0.442289 0
  outer loop
   vertex 36.3731 21 0
   vertex 38.8029 16.0727 0
   vertex 36.3731 21 8
  endloop
 endfacet
 facet normal -0.896873 -0.442289 0
  outer loop
   vertex 38.8029 16.0727 0
   vertex 38.8029 16.0727 8
   vertex 36.3731 21 8
  endloop
 endfacet
 facet normal 0 0 1
  outer loop
   vertex 50.8134 21.0476 8
   vertex 47.6314 27.5 8
   vertex 36.3731 21 8
  endloop
 endfacet
 facet normal 0 0 1
  outer loop
   vertex 50.8134 21.0476 8
   vertex 36.3731 21 8
   vertex 38.8029 16.0727 8
  endloop
 endfacet
 facet normal 0 -0 -1
  outer loop
   vertex 47.6314 27.5 0
   vertex 50.8134 21.0476 0
   vertex 36.3731 21 0
  endloop
 endfacet
 facet normal 0 0 -1
  outer loop
   vertex 50.8134 21.0476 0
   vertex 38.8029 16.0727 0
   vertex 36.3731 21 0
  endloop
 endfacet
 facet normal 0.83147 0.55557 0
  outer loop
   vertex 47.6314 27.5 0
   vertex 43.6344 33.4819 0
   vertex 43.6344 33.4819 8
  endloop
 endfacet
 facet normal 0.83147 0.55557 -0
  outer loop
   vertex 47.6314 27.5 0
   vertex 43.6344 33.4819 8
   vertex 47.6314 27.5 8
  endloop
 endfacet
 facet normal -0.83147 -0.55557 0
  outer loop
   vertex 33.3208 25.568 0
   vertex 36.3731 21 0
   vertex 33.3208 25.568 8
  endloop
 endfacet
 facet normal -0.83147 -0.55557 0
  outer loop
   vertex 36.3731 21 0
   vertex 36.3731 21 8
   vertex 33.3208 25.568 8
  endloop
 endfacet
 facet normal 0 0 1
  outer loop
   vertex 47.6314 27.5 8
   vertex 43.6344 33.4819 8
   vertex 33.3208 25.568 8
  endloop
 endfacet
 facet normal 0 0 1
  outer loop
   vertex 47.6314 27.5 8
   vertex 33.3208 25.568 8
   vertex 36.3731 21 8
  endloop
 endfacet
 facet normal 0 -0 -1
  outer loop
   vertex 43.6344 33.4819 0
   vertex 47.6314 27.5 0
   vertex 33.3208 25.568 0
  endloop
 endfacet
 facet normal 0 0 -1
  outer loop
   vertex 47.6314 27.5 0
   vertex 36.3731 21 0
   vertex 33.3208 25.568 0
  endloop
 endfacet
 facet normal 0.75184 0.659346 0
  outer loop
   vertex 43.6344 33.4819 0
   vertex 38.8909 38.8909 0
   vertex 38.8909 38.8909 8
  endloop
 endfacet
 facet normal 0.75184 0.659346 -0
  outer loop
   vertex 43.6344 33.4819 0
   vertex 38.8909 38.8909 8
   vertex 43.6344 33.4819 8
  endloop
 endfacet
 facet normal -0.75184 -0.659346 0
  outer loop
   vertex 29.6985 29.6985 0
   vertex 33.3208 25.568 0
   vertex 29.6985 29.6985 8
  endloop
 endfacet
 facet normal -0.75184 -0.659346 0
  outer loop
   vertex 33.3208 25.568 0
   vertex 33.3208 25.568 8
   vertex 29.6985 29.6985 8
  endloop
 endfacet
 facet normal 0 0 1
  outer loop
   vertex 43.6344 33.4819 8
   vertex 38.8909 38.8909 8
   vertex 29.6985 29.6985 8
  endloop
 endfacet
 facet normal 0 0 1
  outer loop
   vertex 43.6344 33.4819 8
   vertex 29.6985 29.6985 8
   vertex 33.3208 25.568 8
  endloop
 endfacet
 facet normal 0 -0 -1
  outer loop
   vertex 38.8909 38.8909 0
   vertex 43.6344 33.4819 0
   vertex 29.6985 29.6985 0
  endloop
 endfacet
 facet normal 0 0 -1
  outer loop
   vertex 43.6344 33.4819 0
   vertex 33.3208 25.568 0
   vertex 29.6985 29.6985 0
  endloop
 endfacet
 facet normal 0.659346 0.75184 0
  outer loop
   vertex 38.8909 38.8909 0
   vertex 33.4819 43.6344 0
   vertex 33.4819 43.6344 8
  endloop
 endfacet
 facet normal 0.659346 0.75184 -0
  outer loop
   vertex 38.8909 38.8909 0
   vertex 33.4819 43.6344 8
   vertex 38.8909 38.8909 8
  endloop
 endfacet
 facet normal -0.659346 -0.75184 0
  outer loop
   vertex 25.568 33.3208 0
   vertex 29.6985 29.6985 0
   vertex 25.568 33.3208 8
  endloop
 endfacet
 facet normal -0.659346 -0.75184 0
  outer loop
   vertex 29.6985 29.6985 0
   vertex 29.6985 29.6985 8
   vertex 25.568 33.3208 8
  endloop
 endfacet
 facet normal 0 0 1
  outer loop
   vertex 38.8909 38.8909 8
   vertex 33.4819 43.6344 8
   vertex 25.568 33.3208 8
  endloop
 endfacet
 facet normal 0 0 1
  outer loop
   vertex 38.8909 38.8909 8
   vertex 25.568 33.3208 8
   vertex 29.6985 29.6985 8
  endloop
 endfacet
 facet normal 0 -0 -1
  outer loop
   vertex 33.4819 43.6344 0
   vertex 38.8909 38.8909 0
   vertex 25.568 33.3208 0
  endloop
 endfacet
 facet normal 0 0 -1
  outer loop
   vertex 38.8909 38.8909 0
   vertex 29.6985 29.6985 0
   vertex 25.568 33.3208 0
  endloop
 endfacet
 facet normal 0.55557 0.83147 0
  outer loop
   vertex 33.4819 43.6344 0
   vertex 27.5 47.6314 0
   vertex 27.5 47.6314 8
  endloop
 endfacet
 facet normal 0.55557 0.83147 -0
  outer loop
   vertex 33.4819 43.6344 0
   vertex 27.5 47.6314 8
   vertex 33.4819 43.6344 8
  endloop
 endfacet
 facet normal -0.55557 -0.83147 0
  outer loop
   vertex 21 36.3731 0
   vertex 25.568 33.3208 0
   vertex 21 36.3731 8
  endloop
 endfacet
 facet normal -0.55557 -0.83147 0
  outer loop
   vertex 25.568 33.3208 0
   vertex 25.568 33.3208 8
   vertex 21 36.3731 8
  endloop
 endfacet
 facet normal 0 0 1
  outer loop
   vertex 33.4819 43.6344 8
   vertex 27.5 47.6314 8
   vertex 21 36.3731 8
  endloop
 endfacet
 facet normal 0 0 1
  outer loop
   vertex 33.4819 43.6344 8
   vertex 21 36.3731 8
   vertex 25.568 33.3208 8
  endloop
 endfacet
 facet normal 0 -0 -1
  outer loop
   vertex 27.5 47.6314 0
   vertex 33.4819 43.6344 0
   vertex 21 36.3731 0
  endloop
 endfacet
 facet normal 0 0 -1
  outer loop
   vertex 33.4819 43.6344 0
   vertex 25.568 33.3208 0
   vertex 21 36.3731 0
  endloop
 endfacet
 facet normal 0.442289 0.896873 0
  outer loop
   vertex 27.5 47.6314 0
   vertex 21.0476 50.8134 0
   vertex 21.0476 50.8134 8
  endloop
 endfacet
 facet normal 0.442289 0.896873 -0
  outer loop
   vertex 27.5 47.6314 0
   vertex 21.0476 50.8134 8
   vertex 27.5 47.6314 8
  endloop
 endfacet
 facet normal -0.442289 -0.896873 0
  outer loop
   vertex 16.0727 38.8029 0
   vertex 21 36.3731 0
   vertex 16.0727 38.8029 8
  endloop
 endfacet
 facet normal -0.442289 -0.896873 0
  outer loop
   vertex 21 36.3731 0
   vertex 21 36.3731 8
   vertex 16.0727 38.8029 8
  endloop
 endfacet
 facet normal 0 0 1
  outer loop
   vertex 27.5 47.6314 8
   vertex 21.0476 50.8134 8
   vertex 16.0727 38.8029 8
  endloop
 endfacet
 facet normal 0 0 1
  outer loop
   vertex 27.5 47.6314 8
   vertex 16.0727 38.8029 8
   vertex 21 36.3731 8
  endloop
 endfacet
 facet normal 0 -0 -1
  outer loop
   vertex 21.0476 50.8134 0
   vertex 27.5 47.6314 0
   vertex 16.0727 38.8029 0
  endloop
 endfacet
 facet normal 0 0 -1
  outer loop
   vertex 27.5 47.6314 0
   vertex 21 36.3731 0
   vertex 16.0727 38.8029 0
  endloop
 endfacet
 facet normal 0.321439 0.94693 0
  outer loop
   vertex 21.0476 50.8134 0
   vertex 14.235 53.1259 0
   vertex 14.235 53.1259 8
  endloop
 endfacet
 facet normal 0.321439 0.94693 -0
  outer loop
   vertex 21.0476 50.8134 0
   vertex 14.235 53.1259 8
   vertex 21.0476 50.8134 8
  endloop
 endfacet
 facet normal -0.321439 -0.94693 0
  outer loop
   vertex 10.8704 40.5689 0
   vertex 16.0727 38.8029 0
   vertex 10.8704 40.5689 8
  endloop
 endfacet
 facet normal -0.321439 -0.94693 0
  outer loop
   vertex 16.0727 38.8029 0
   vertex 16.0727 38.8029 8
   vertex 10.8704 40.5689 8
  endloop
 endfacet
 facet normal 0 0 1
  outer loop
   vertex 21.0476 50.8134 8
   vertex 14.235 53.1259 8
   vertex 10.8704 40.5689 8
  endloop
 endfacet
 facet normal 0 0 1
  outer loop
   vertex 21.0476 50.8134 8
   vertex 10.8704 40.5689 8
   vertex 16.0727 38.8029 8
  endloop
 endfacet
 facet normal 0 -0 -1
  outer loop
   vertex 14.235 53.1259 0
   vertex 21.0476 50.8134 0
   vertex 10.8704 40.5689 0
  endloop
 endfacet
 facet normal 0 0 -1
  outer loop
   vertex 21.0476 50.8134 0
   vertex 16.0727 38.8029 0
   vertex 10.8704 40.5689 0
  endloop
 endfacet
 facet normal 0.19509 0.980785 0
  outer loop
   vertex 14.235 53.1259 0
   vertex 7.17894 54.5295 0
   vertex 7.17894 54.5295 8
  endloop
 endfacet
 facet normal 0.19509 0.980785 -0
  outer loop
   vertex 14.235 53.1259 0
   vertex 7.17894 54.5295 8
   vertex 14.235 53.1259 8
  endloop
 endfacet
 facet normal -0.19509 -0.980785 0
  outer loop
   vertex 5.4821 41.6407 0
   vertex 10.8704 40.5689 0
   vertex 5.4821 41.6407 8
  endloop
 endfacet
 facet normal -0.19509 -0.980785 0
  outer loop
   vertex 10.8704 40.5689 0
   vertex 10.8704 40.5689 8
   vertex 5.4821 41.6407 8
  endloop
 endfacet
 facet normal 0 0 1
  outer loop
   vertex 14.235 53.1259 8
   vertex 7.17894 54.5295 8
   vertex 5.4821 41.6407 8
  endloop
 endfacet
 facet normal 0 0 1
  outer loop
   vertex 14.235 53.1259 8
   vertex 5.4821 41.6407 8
   vertex 10.8704 40.5689 8
  endloop
 endfacet
 facet normal 0 -0 -1
  outer loop
   vertex 7.17894 54.5295 0
   vertex 14.235 53.1259 0
   vertex 5.4821 41.6407 0
  endloop
 endfacet
 facet normal 0 0 -1
  outer loop
   vertex 14.235 53.1259 0
   vertex 10.8704 40.5689 0
   vertex 5.4821 41.6407 0
  endloop
 endfacet
 facet normal 0.0654031 0.997859 0
  outer loop
   vertex 7.17894 54.5295 0
   vertex 3.36778e-15 55 0
   vertex 3.36778e-15 55 8
  endloop
 endfacet
 facet normal 0.0654031 0.997859 -0
  outer loop
   vertex 7.17894 54.5295 0
   vertex 3.36778e-15 55 8
   vertex 7.17894 54.5295 8
  endloop
 endfacet
 facet normal -0.0654031 -0.997859 0
  outer loop
   vertex 2.57176e-15 42 0
   vertex 5.4821 41.6407 0
   vertex 2.57176e-15 42 8
  endloop
 endfacet
 facet normal -0.0654031 -0.997859 0
  outer loop
   vertex 5.4821 41.6407 0
   vertex 5.4821 41.6407 8
   vertex 2.57176e-15 42 8
  endloop
 endfacet
 facet normal 0 0 1
  outer loop
   vertex 7.17894 54.5295 8
   vertex 3.36778e-15 55 8
   vertex 2.57176e-15 42 8
  endloop
 endfacet
 facet normal 0 0 1
  outer loop
   vertex 7.17894 54.5295 8
   vertex 2.57176e-15 42 8
   vertex 5.4821 41.6407 8
  endloop
 endfacet
 facet normal 0 -0 -1
  outer loop
   vertex 3.36778e-15 55 0
   vertex 7.17894 54.5295 0
   vertex 2.57176e-15 42 0
  endloop
 endfacet
 facet normal 0 0 -1
  outer loop
   vertex 7.17894 54.5295 0
   vertex 5.4821 41.6407 0
   vertex 2.57176e-15 42 0
  endloop
 endfacet
 facet normal -0.0654031 0.997859 0
  outer loop
   vertex 3.36778e-15 55 0
   vertex -7.17894 54.5295 0
   vertex -7.17894 54.5295 8
  endloop
 endfacet
 facet normal -0.0654031 0.997859 0
  outer loop
   vertex 3.36778e-15 55 0
   vertex -7.17894 54.5295 8
   vertex 3.36778e-15 55 8
  endloop
 endfacet
 facet normal 0.0654031 -0.997859 0
  outer loop
   vertex -5.4821 41.6407 0
   vertex 2.57176e-15 42 0
   vertex -5.4821 41.6407 8
  endloop
 endfacet
 facet normal 0.0654031 -0.997859 0
  outer loop
   vertex 2.57176e-15 42 0
   vertex 2.57176e-15 42 8
   vertex -5.4821 41.6407 8
  endloop
 endfacet
 facet normal 0 0 1
  outer loop
   vertex 3.36778e-15 55 8
   vertex -7.17894 54.5295 8
   vertex -5.4821 41.6407 8
  endloop
 endfacet
 facet normal 0 0 1
  outer loop
   vertex 3.36778e-15 55 8
   vertex -5.4821 41.6407 8
   vertex 2.57176e-15 42 8
  endloop
 endfacet
 facet normal 0 0 -1
  outer loop
   vertex -7.17894 54.5295 0
   vertex 3.36778e-15 55 0
   vertex -5.4821 41.6407 0
  endloop
 endfacet
 facet normal 0 0 -1
  outer loop
   vertex 3.36778e-15 55 0
   vertex 2.57176e-15 42 0
   vertex -5.4821 41.6407 0
  endloop
 endfacet
 facet normal -0.19509 0.980785 0
  outer loop
   vertex -7.17894 54.5295 0
   vertex -14.235 53.1259 0
   vertex -14.235 53.1259 8
  endloop
 endfacet
 facet normal -0.19509 0.980785 0
  outer loop
   vertex -7.17894 54.5295 0
   vertex -14.235 53.1259 8
   vertex -7.17894 54.5295 8
  endloop
 endfacet
 facet normal 0.19509 -0.980785 0
  outer loop
   vertex -10.8704 40.5689 0
   vertex -5.4821 41.6407 0
   vertex -10.8704 40.5689 8
  endloop
 endfacet
 facet normal 0.19509 -0.980785 0
  outer loop
   vertex -5.4821 41.6407 0
   vertex -5.4821 41.6407 8
   vertex -10.8704 40.5689 8
  endloop
 endfacet
 facet normal 0 0 1
  outer loop
   vertex -7.17894 54.5295 8
   vertex -14.235 53.1259 8
   vertex -10.8704 40.5689 8
  endloop
 endfacet
 facet normal 0 0 1
  outer loop
   vertex -7.17894 54.5295 8
   vertex -10.8704 40.5689 8
   vertex -5.4821 41.6407 8
  endloop
 endfacet
 facet normal 0 0 -1
  outer loop
   vertex -14.235 53.1259 0
   vertex -7.17894 54.5295 0
   vertex -10.8704 40.5689 0
  endloop
 endfacet
 facet normal 0 -0 -1
  outer loop
   vertex -7.17894 54.5295 0
   vertex -5.4821 41.6407 0
   vertex -10.8704 40.5689 0
  endloop
 endfacet
 facet normal -0.321439 0.94693 0
  outer loop
   vertex -14.235 53.1259 0
   vertex -21.0476 50.8134 0
   vertex -21.0476 50.8134 8
  endloop
 endfacet
 facet normal -0.321439 0.94693 0
  outer loop
   vertex -14.235 53.1259 0
   vertex -21.0476 50.8134 8
   vertex -14.235 53.1259 8
  endloop
 endfacet
 facet normal 0.321439 -0.94693 0
  outer loop
   vertex -16.0727 38.8029 0
   vertex -10.8704 40.5689 0
   vertex -16.0727 38.8029 8
  endloop
 endfacet
 facet normal 0.321439 -0.94693 0
  outer loop
   vertex -10.8704 40.5689 0
   vertex -10.8704 40.5689 8
   vertex -16.0727 38.8029 8
  endloop
 endfacet
 facet normal 0 0 1
  outer loop
   vertex -14.235 53.1259 8
   vertex -21.0476 50.8134 8
   vertex -16.0727 38.8029 8
  endloop
 endfacet
 facet normal 0 0 1
  outer loop
   vertex -14.235 53.1259 8
   vertex -16.0727 38.8029 8
   vertex -10.8704 40.5689 8
  endloop
 endfacet
 facet normal 0 0 -1
  outer loop
   vertex -21.0476 50.8134 0
   vertex -14.235 53.1259 0
   vertex -16.0727 38.8029 0
  endloop
 endfacet
 facet normal 0 -0 -1
  outer loop
   vertex -14.235 53.1259 0
   vertex -10.8704 40.5689 0
   vertex -16.0727 38.8029 0
  endloop
 endfacet
 facet normal -0.442289 0.896873 0
  outer loop
   vertex -21.0476 50.8134 0
   vertex -27.5 47.6314 0
   vertex -27.5 47.6314 8
  endloop
 endfacet
 facet normal -0.442289 0.896873 0
  outer loop
   vertex -21.0476 50.8134 0
   vertex -27.5 47.6314 8
   vertex -21.0476 50.8134 8
  endloop
 endfacet
 facet normal 0.442289 -0.896873 0
  outer loop
   vertex -21 36.3731 0
   vertex -16.0727 38.8029 0
   vertex -21 36.3731 8
  endloop
 endfacet
 facet normal 0.442289 -0.896873 0
  outer loop
   vertex -16.0727 38.8029 0
   vertex -16.0727 38.8029 8
   vertex -21 36.3731 8
  endloop
 endfacet
 facet normal 0 0 1
  outer loop
   vertex -21.0476 50.8134 8
   vertex -27.5 47.6314 8
   vertex -21 36.3731 8
  endloop
 endfacet
 facet normal 0 0 1
  outer loop
   vertex -21.0476 50.8134 8
   vertex -21 36.3731 8
   vertex -16.0727 38.8029 8
  endloop
 endfacet
 facet normal 0 0 -1
  outer loop
   vertex -27.5 47.6314 0
   vertex -21.0476 50.8134 0
   vertex -21 36.3731 0
  endloop
 endfacet
 facet normal 0 0 -1
  outer loop
   vertex -21.0476 50.8134 0
   vertex -16.0727 38.8029 0
   vertex -21 36.3731 0
  endloop
 endfacet
 facet normal -0.55557 0.83147 0
  outer loop
   vertex -27.5 47.6314 0
   vertex -33.4819 43.6344 0
   vertex -33.4819 43.6344 8
  endloop
 endfacet
 facet normal -0.55557 0.83147 0
  outer loop
   vertex -27.5 47.6314 0
   vertex -33.4819 43.6344 8
   vertex -27.5 47.6314 8
  endloop
 endfacet
 facet normal 0.55557 -0.83147 0
  outer loop
   vertex -25.568 33.3208 0
   vertex -21 36.3731 0
   vertex -25.568 33.3208 8
  endloop
 endfacet
 facet normal 0.55557 -0.83147 0
  outer loop
   vertex -21 36.3731 0
   vertex -21 36.3731 8
   vertex -25.568 33.3208 8
  endloop
 endfacet
 facet normal 0 0 1
  outer loop
   vertex -27.5 47.6314 8
   vertex -33.4819 43.6344 8
   vertex -25.568 33.3208 8
  endloop
 endfacet
 facet normal 0 0 1
  outer loop
   vertex -27.5 47.6314 8
   vertex -25.568 33.3208 8
   vertex -21 36.3731 8
  endloop
 endfacet
 facet normal 0 0 -1
  outer loop
   vertex -33.4819 43.6344 0
   vertex -27.5 47.6314 0
   vertex -25.568 33.3208 0
  endloop
 endfacet
 facet normal 0 0 -1
  outer loop
   vertex -27.5 47.6314 0
   vertex -21 36.3731 0
   vertex -25.568 33.3208 0
  endloop
 endfacet
 facet normal -0.659346 0.75184 0
  outer loop
   vertex -33.4819 43.6344 0
   vertex -38.8909 38.8909 0
   vertex -38.8909 38.8909 8
  endloop
 endfacet
 facet normal -0.659346 0.75184 0
  outer loop
   vertex -33.4819 43.6344 0
   vertex -38.8909 38.8909 8
   vertex -33.4819 43.6344 8
  endloop
 endfacet
 facet normal 0.659346 -0.75184 0
  outer loop
   vertex -29.6985 29.6985 0
   vertex -25.568 33.3208 0
   vertex -29.6985 29.6985 8
  endloop
 endfacet
 facet normal 0.659346 -0.75184 0
  outer loop
   vertex -25.568 33.3208 0
   vertex -25.568 33.3208 8
   vertex -29.6985 29.6985 8
  endloop
 endfacet
 facet normal 0 0 1
  outer loop
   vertex -33.4819 43.6344 8
   vertex -38.8909 38.8909 8
   vertex -29.6985 29.6985 8
  endloop
 endfacet
facet normal 0 0 1
  outer loop
   vertex -33.4819 43.6344 8
   vertex -29.6985 29.6985 8
   vertex -25.568 33.3208 8
  endloop
 endfacet
 facet normal 0 0 -1
  outer loop
   vertex -38.8909 38.8909 0
   vertex -33.4819 43.6344 0
   vertex -29.6985 29.6985 0
  endloop
 endfacet
 facet normal 0 0 -1
  outer loop
   vertex -33.4819 43.6344 0
   vertex -25.568 33.3208 0
   vertex -29.6985 29.6985 0
  endloop
 endfacet
 facet normal -0.75184 0.659346 0
  outer loop
   vertex -38.8909 38.8909 0
   vertex -43.6344 33.4819 0
   vertex -43.6344 33.4819 8
  endloop
 endfacet
 facet normal -0.75184 0.659346 0
  outer loop
   vertex -38.8909 38.8909 0
   vertex -43.6344 33.4819 8
   vertex -38.8909 38.8909 8
  endloop
 endfacet
 facet normal 0.75184 -0.659346 0
  outer loop
   vertex -33.3208 25.568 0
   vertex -29.6985 29.6985 0
   vertex -33.3208 25.568 8
  endloop
 endfacet
 facet normal 0.75184 -0.659346 0
  outer loop
   vertex -29.6985 29.6985 0
   vertex -29.6985 29.6985 8
   vertex -33.3208 25.568 8
  endloop
 endfacet
 facet normal 0 0 1
  outer loop
   vertex -38.8909 38.8909 8
   vertex -43.6344 33.4819 8
   vertex -33.3208 25.568 8
  endloop
 endfacet
 facet normal 0 0 1
  outer loop
   vertex -38.8909 38.8909 8
   vertex -33.3208 25.568 8
   vertex -29.6985 29.6985 8
  endloop
 endfacet
 facet normal 0 0 -1
  outer loop
   vertex -43.6344 33.4819 0
   vertex -38.8909 38.8909 0
   vertex -33.3208 25.568 0
  endloop
 endfacet
 facet normal 0 0 -1
  outer loop
   vertex -38.8909 38.8909 0
   vertex -29.6985 29.6985 0
   vertex -33.3208 25.568 0
  endloop
 endfacet
 facet normal -0.83147 0.55557 0
  outer loop
   vertex -43.6344 33.4819 0
   vertex -47.6314 27.5 0
   vertex -47.6314 27.5 8
  endloop
 endfacet
 facet normal -0.83147 0.55557 0
  outer loop
   vertex -43.6344 33.4819 0
   vertex -47.6314 27.5 8
   vertex -43.6344 33.4819 8
  endloop
 endfacet
 facet normal 0.83147 -0.55557 0
  outer loop
   vertex -36.3731 21 0
   vertex -33.3208 25.568 0
   vertex -36.3731 21 8
  endloop
 endfacet
 facet normal 0.83147 -0.55557 0
  outer loop
   vertex -33.3208 25.568 0
   vertex -33.3208 25.568 8
   vertex -36.3731 21 8
  endloop
 endfacet
 facet normal 0 0 1
  outer loop
   vertex -43.6344 33.4819 8
   vertex -47.6314 27.5 8
   vertex -36.3731 21 8
  endloop
 endfacet
 facet normal 0 0 1
  outer loop
   vertex -43.6344 33.4819 8
   vertex -36.3731 21 8
   vertex -33.3208 25.568 8
  endloop
 endfacet
 facet normal 0 0 -1
  outer loop
   vertex -47.6314 27.5 0
   vertex -43.6344 33.4819 0
   vertex -36.3731 21 0
  endloop
 endfacet
 facet normal 0 0 -1
  outer loop
   vertex -43.6344 33.4819 0
   vertex -33.3208 25.568 0
   vertex -36.3731 21 0
  endloop
 endfacet
 facet normal -0.896873 0.442289 0
  outer loop
   vertex -47.6314 27.5 0
   vertex -50.8134 21.0476 0
   vertex -50.8134 21.0476 8
  endloop
 endfacet
 facet normal -0.896873 0.442289 0
  outer loop
   vertex -47.6314 27.5 0
   vertex -50.8134 21.0476 8
   vertex -47.6314 27.5 8
  endloop
 endfacet
 facet normal 0.896873 -0.442289 0
  outer loop
   vertex -38.8029 16.0727 0
   vertex -36.3731 21 0
   vertex -38.8029 16.0727 8
  endloop
 endfacet
 facet normal 0.896873 -0.442289 0
  outer loop
   vertex -36.3731 21 0
   vertex -36.3731 21 8
   vertex -38.8029 16.0727 8
  endloop
 endfacet
 facet normal 0 0 1
  outer loop
   vertex -47.6314 27.5 8
   vertex -50.8134 21.0476 8
   vertex -38.8029 16.0727 8
  endloop
 endfacet
 facet normal 0 0 1
  outer loop
   vertex -47.6314 27.5 8
   vertex -38.8029 16.0727 8
   vertex -36.3731 21 8
  endloop
 endfacet
 facet normal 0 0 -1
  outer loop
   vertex -50.8134 21.0476 0
   vertex -47.6314 27.5 0
   vertex -38.8029 16.0727 0
  endloop
 endfacet
 facet normal 0 0 -1
  outer loop
   vertex -47.6314 27.5 0
   vertex -36.3731 21 0
   vertex -38.8029 16.0727 0
  endloop
 endfacet
 facet normal -0.94693 0.321439 0
  outer loop
   vertex -50.8134 21.0476 0
   vertex -53.1259 14.235 0
   vertex -53.1259 14.235 8
  endloop
 endfacet
 facet normal -0.94693 0.321439 0
  outer loop
   vertex -50.8134 21.0476 0
   vertex -53.1259 14.235 8
   vertex -50.8134 21.0476 8
  endloop
 endfacet
 facet normal 0.94693 -0.321439 0
  outer loop
   vertex -40.5689 10.8704 0
   vertex -38.8029 16.0727 0
   vertex -40.5689 10.8704 8
  endloop
 endfacet
 facet normal 0.94693 -0.321439 0
  outer loop
   vertex -38.8029 16.0727 0
   vertex -38.8029 16.0727 8
   vertex -40.5689 10.8704 8
  endloop
 endfacet
 facet normal 0 0 1
  outer loop
   vertex -50.8134 21.0476 8
   vertex -53.1259 14.235 8
   vertex -40.5689 10.8704 8
  endloop
 endfacet
 facet normal 0 0 1
  outer loop
   vertex -50.8134 21.0476 8
   vertex -40.5689 10.8704 8
   vertex -38.8029 16.0727 8
  endloop
 endfacet
 facet normal 0 0 -1
  outer loop
   vertex -53.1259 14.235 0
   vertex -50.8134 21.0476 0
   vertex -40.5689 10.8704 0
  endloop
 endfacet
 facet normal 0 0 -1
  outer loop
   vertex -50.8134 21.0476 0
   vertex -38.8029 16.0727 0
   vertex -40.5689 10.8704 0
  endloop
 endfacet
 facet normal -0.980785 0.19509 0
  outer loop
   vertex -53.1259 14.235 0
   vertex -54.5295 7.17894 0
   vertex -54.5295 7.17894 8
  endloop
 endfacet
 facet normal -0.980785 0.19509 0
  outer loop
   vertex -53.1259 14.235 0
   vertex -54.5295 7.17894 8
   vertex -53.1259 14.235 8
  endloop
 endfacet
 facet normal 0.980785 -0.19509 0
  outer loop
   vertex -41.6407 5.4821 0
   vertex -40.5689 10.8704 0
   vertex -41.6407 5.4821 8
  endloop
 endfacet
 facet normal 0.980785 -0.19509 0
  outer loop
   vertex -40.5689 10.8704 0
   vertex -40.5689 10.8704 8
   vertex -41.6407 5.4821 8
  endloop
 endfacet
 facet normal 0 0 1
  outer loop
   vertex -53.1259 14.235 8
   vertex -54.5295 7.17894 8
   vertex -41.6407 5.4821 8
  endloop
 endfacet
 facet normal 0 0 1
  outer loop
   vertex -53.1259 14.235 8
   vertex -41.6407 5.4821 8
   vertex -40.5689 10.8704 8
  endloop
 endfacet
 facet normal 0 0 -1
  outer loop
   vertex -54.5295 7.17894 0
   vertex -53.1259 14.235 0
   vertex -41.6407 5.4821 0
  endloop
 endfacet
 facet normal 0 0 -1
  outer loop
   vertex -53.1259 14.235 0
   vertex -40.5689 10.8704 0
   vertex -41.6407 5.4821 0
  endloop
 endfacet
 facet normal -0.997859 0.0654031 0
  outer loop
   vertex -54.5295 7.17894 0
   vertex -55 6.73556e-15 0
   vertex -55 6.73556e-15 8
  endloop
 endfacet
 facet normal -0.997859 0.0654031 0
  outer loop
   vertex -54.5295 7.17894 0
   vertex -55 6.73556e-15 8
   vertex -54.5295 7.17894 8
  endloop
 endfacet
 facet normal 0.997859 -0.0654031 0
  outer loop
   vertex -42 5.14352e-15 0
   vertex -41.6407 5.4821 0
   vertex -42 5.14352e-15 8
  endloop
 endfacet
 facet normal 0.997859 -0.0654031 0
  outer loop
   vertex -41.6407 5.4821 0
   vertex -41.6407 5.4821 8
   vertex -42 5.14352e-15 8
  endloop
 endfacet
 facet normal 0 0 1
  outer loop
   vertex -54.5295 7.17894 8
   vertex -55 6.73556e-15 8
   vertex -42 5.14352e-15 8
  endloop
 endfacet
 facet normal 0 0 1
  outer loop
   vertex -54.5295 7.17894 8
   vertex -42 5.14352e-15 8
   vertex -41.6407 5.4821 8
  endloop
 endfacet
 facet normal 0 0 -1
  outer loop
   vertex -55 6.73556e-15 0
   vertex -54.5295 7.17894 0
   vertex -42 5.14352e-15 0
  endloop
 endfacet
 facet normal 0 0 -1
  outer loop
   vertex -54.5295 7.17894 0
   vertex -41.6407 5.4821 0
   vertex -42 5.14352e-15 0
  endloop
 endfacet
 facet normal -0.997859 -0.0654031 0
  outer loop
   vertex -55 6.73556e-15 0
   vertex -54.5295 -7.17894 0
   vertex -54.5295 -7.17894 8
  endloop
 endfacet
 facet normal -0.997859 -0.0654031 0
  outer loop
   vertex -55 6.73556e-15 0
   vertex -54.5295 -7.17894 8
   vertex -55 6.73556e-15 8
  endloop
 endfacet
 facet normal 0.997859 0.0654031 -0
  outer loop
   vertex -41.6407 -5.4821 0
   vertex -42 5.14352e-15 0
   vertex -41.6407 -5.4821 8
  endloop
 endfacet
 facet normal 0.997859 0.0654031 -0
  outer loop
   vertex -42 5.14352e-15 0
   vertex -42 5.14352e-15 8
   vertex -41.6407 -5.4821 8
  endloop
 endfacet
 facet normal 0 0 1
  outer loop
   vertex -55 6.73556e-15 8
   vertex -54.5295 -7.17894 8
   vertex -41.6407 -5.4821 8
  endloop
 endfacet
 facet normal 0 0 1
  outer loop
   vertex -55 6.73556e-15 8
   vertex -41.6407 -5.4821 8
   vertex -42 5.14352e-15 8
  endloop
 endfacet
 facet normal 0 0 -1
  outer loop
   vertex -54.5295 -7.17894 0
   vertex -55 6.73556e-15 0
   vertex -41.6407 -5.4821 0
  endloop
 endfacet
 facet normal 0 0 -1
  outer loop
   vertex -55 6.73556e-15 0
   vertex -42 5.14352e-15 0
   vertex -41.6407 -5.4821 0
  endloop
 endfacet
 facet normal -0.980785 -0.19509 0
  outer loop
   vertex -54.5295 -7.17894 0
   vertex -53.1259 -14.235 0
   vertex -53.1259 -14.235 8
  endloop
 endfacet
 facet normal -0.980785 -0.19509 0
  outer loop
   vertex -54.5295 -7.17894 0
   vertex -53.1259 -14.235 8
   vertex -54.5295 -7.17894 8
  endloop
 endfacet
 facet normal 0.980785 0.19509 -0
  outer loop
   vertex -40.5689 -10.8704 0
   vertex -41.6407 -5.4821 0
   vertex -40.5689 -10.8704 8
  endloop
 endfacet
 facet normal 0.980785 0.19509 -0
  outer loop
   vertex -41.6407 -5.4821 0
   vertex -41.6407 -5.4821 8
   vertex -40.5689 -10.8704 8
  endloop
 endfacet
 facet normal 0 0 1
  outer loop
   vertex -54.5295 -7.17894 8
   vertex -53.1259 -14.235 8
   vertex -40.5689 -10.8704 8
  endloop
 endfacet
 facet normal -0 0 1
  outer loop
   vertex -54.5295 -7.17894 8
   vertex -40.5689 -10.8704 8
   vertex -41.6407 -5.4821 8
  endloop
 endfacet
 facet normal 0 0 -1
  outer loop
   vertex -53.1259 -14.235 0
   vertex -54.5295 -7.17894 0
   vertex -40.5689 -10.8704 0
  endloop
 endfacet
 facet normal 0 0 -1
  outer loop
   vertex -54.5295 -7.17894 0
   vertex -41.6407 -5.4821 0
   vertex -40.5689 -10.8704 0
  endloop
 endfacet
 facet normal -0.94693 -0.321439 0
  outer loop
   vertex -53.1259 -14.235 0
   vertex -50.8134 -21.0476 0
   vertex -50.8134 -21.0476 8
  endloop
 endfacet
 facet normal -0.94693 -0.321439 0
  outer loop
   vertex -53.1259 -14.235 0
   vertex -50.8134 -21.0476 8
   vertex -53.1259 -14.235 8
  endloop
 endfacet
 facet normal 0.94693 0.321439 -0
  outer loop
   vertex -38.8029 -16.0727 0
   vertex -40.5689 -10.8704 0
   vertex -38.8029 -16.0727 8
  endloop
 endfacet
 facet normal 0.94693 0.321439 -0
  outer loop
   vertex -40.5689 -10.8704 0
   vertex -40.5689 -10.8704 8
   vertex -38.8029 -16.0727 8
  endloop
 endfacet
 facet normal 0 0 1
  outer loop
   vertex -53.1259 -14.235 8
   vertex -50.8134 -21.0476 8
   vertex -38.8029 -16.0727 8
  endloop
 endfacet
 facet normal -0 0 1
  outer loop
   vertex -53.1259 -14.235 8
   vertex -38.8029 -16.0727 8
   vertex -40.5689 -10.8704 8
  endloop
 endfacet
 facet normal 0 0 -1
   outer loop
   vertex -50.8134 -21.0476 0
   vertex -53.1259 -14.235 0
   vertex -38.8029 -16.0727 0
  endloop
 endfacet
 facet normal 0 0 -1
  outer loop
   vertex -53.1259 -14.235 0
   vertex -40.5689 -10.8704 0
   vertex -38.8029 -16.0727 0
  endloop
 endfacet
 facet normal -0.896873 -0.442289 0
  outer loop
   vertex -50.8134 -21.0476 0
   vertex -47.6314 -27.5 0
   vertex -47.6314 -27.5 8
  endloop
 endfacet
 facet normal -0.896873 -0.442289 0
  outer loop
   vertex -50.8134 -21.0476 0
   vertex -47.6314 -27.5 8
   vertex -50.8134 -21.0476 8
  endloop
 endfacet
 facet normal 0.896873 0.442289 -0
  outer loop
   vertex -36.3731 -21 0
   vertex -38.8029 -16.0727 0
   vertex -36.3731 -21 8
  endloop
 endfacet
 facet normal 0.896873 0.442289 -0
  outer loop
   vertex -38.8029 -16.0727 0
   vertex -38.8029 -16.0727 8
   vertex -36.3731 -21 8
  endloop
 endfacet
 facet normal -0 0 1
  outer loop
   vertex -50.8134 -21.0476 8
   vertex -47.6314 -27.5 8
   vertex -36.3731 -21 8
  endloop
 endfacet
 facet normal 0 0 1
  outer loop
   vertex -50.8134 -21.0476 8
   vertex -36.3731 -21 8
   vertex -38.8029 -16.0727 8
  endloop
 endfacet
 facet normal 0 0 -1
  outer loop
   vertex -47.6314 -27.5 0
   vertex -50.8134 -21.0476 0
   vertex -36.3731 -21 0
  endloop
 endfacet
 facet normal 0 0 -1
  outer loop
   vertex -50.8134 -21.0476 0
   vertex -38.8029 -16.0727 0
   vertex -36.3731 -21 0
  endloop
 endfacet
 facet normal -0.83147 -0.55557 0
  outer loop
   vertex -47.6314 -27.5 0
   vertex -43.6344 -33.4819 0
   vertex -43.6344 -33.4819 8
  endloop
 endfacet
 facet normal -0.83147 -0.55557 0
  outer loop
   vertex -47.6314 -27.5 0
   vertex -43.6344 -33.4819 8
   vertex -47.6314 -27.5 8
  endloop
 endfacet
 facet normal 0.83147 0.55557 -0
  outer loop
   vertex -33.3208 -25.568 0
   vertex -36.3731 -21 0
   vertex -33.3208 -25.568 8
  endloop
 endfacet
 facet normal 0.83147 0.55557 -0
  outer loop
   vertex -36.3731 -21 0
   vertex -36.3731 -21 8
   vertex -33.3208 -25.568 8
  endloop
 endfacet
 facet normal -0 0 1
  outer loop
   vertex -47.6314 -27.5 8
   vertex -43.6344 -33.4819 8
   vertex -33.3208 -25.568 8
  endloop
 endfacet
 facet normal 0 0 1
  outer loop
   vertex -47.6314 -27.5 8
   vertex -33.3208 -25.568 8
   vertex -36.3731 -21 8
  endloop
 endfacet
 facet normal 0 0 -1
  outer loop
   vertex -43.6344 -33.4819 0
   vertex -47.6314 -27.5 0
   vertex -33.3208 -25.568 0
  endloop
 endfacet
 facet normal 0 0 -1
  outer loop
   vertex -47.6314 -27.5 0
   vertex -36.3731 -21 0
   vertex -33.3208 -25.568 0
  endloop
 endfacet
 facet normal -0.75184 -0.659346 0
  outer loop
   vertex -43.6344 -33.4819 0
   vertex -38.8909 -38.8909 0
   vertex -38.8909 -38.8909 8
  endloop
 endfacet
 facet normal -0.75184 -0.659346 0
  outer loop
   vertex -43.6344 -33.4819 0
   vertex -38.8909 -38.8909 8
   vertex -43.6344 -33.4819 8
  endloop
 endfacet
 facet normal 0.75184 0.659346 -0
  outer loop
   vertex -29.6985 -29.6985 0
   vertex -33.3208 -25.568 0
   vertex -29.6985 -29.6985 8
  endloop
 endfacet
 facet normal 0.75184 0.659346 -0
  outer loop
   vertex -33.3208 -25.568 0
   vertex -33.3208 -25.568 8
   vertex -29.6985 -29.6985 8
  endloop
 endfacet
 facet normal -0 0 1
  outer loop
   vertex -43.6344 -33.4819 8
   vertex -38.8909 -38.8909 8
   vertex -29.6985 -29.6985 8
  endloop
 endfacet
 facet normal 0 0 1
  outer loop
   vertex -43.6344 -33.4819 8
   vertex -29.6985 -29.6985 8
   vertex -33.3208 -25.568 8
  endloop
 endfacet
 facet normal 0 0 -1
  outer loop
   vertex -38.8909 -38.8909 0
   vertex -43.6344 -33.4819 0
   vertex -29.6985 -29.6985 0
  endloop
 endfacet
 facet normal 0 0 -1
  outer loop
   vertex -43.6344 -33.4819 0
   vertex -33.3208 -25.568 0
   vertex -29.6985 -29.6985 0
  endloop
 endfacet
 facet normal -0.659346 -0.75184 0
  outer loop
   vertex -38.8909 -38.8909 0
   vertex -33.4819 -43.6344 0
   vertex -33.4819 -43.6344 8
  endloop
 endfacet
 facet normal -0.659346 -0.75184 0
  outer loop
   vertex -38.8909 -38.8909 0
   vertex -33.4819 -43.6344 8
   vertex -38.8909 -38.8909 8
  endloop
 endfacet
 facet normal 0.659346 0.75184 -0
  outer loop
   vertex -25.568 -33.3208 0
   vertex -29.6985 -29.6985 0
   vertex -25.568 -33.3208 8
  endloop
 endfacet
 facet normal 0.659346 0.75184 -0
  outer loop
   vertex -29.6985 -29.6985 0
   vertex -29.6985 -29.6985 8
   vertex -25.568 -33.3208 8
  endloop
 endfacet
 facet normal -0 0 1
  outer loop
   vertex -38.8909 -38.8909 8
   vertex -33.4819 -43.6344 8
   vertex -25.568 -33.3208 8
  endloop
 endfacet
 facet normal 0 0 1
  outer loop
   vertex -38.8909 -38.8909 8
   vertex -25.568 -33.3208 8
   vertex -29.6985 -29.6985 8
  endloop
 endfacet
 facet normal 0 0 -1
  outer loop
   vertex -33.4819 -43.6344 0
   vertex -38.8909 -38.8909 0
   vertex -25.568 -33.3208 0
  endloop
 endfacet
 facet normal 0 0 -1
  outer loop
   vertex -38.8909 -38.8909 0
   vertex -29.6985 -29.6985 0
   vertex -25.568 -33.3208 0
  endloop
 endfacet
 facet normal -0.55557 -0.83147 0
  outer loop
   vertex -33.4819 -43.6344 0
   vertex -27.5 -47.6314 0
   vertex -27.5 -47.6314 8
  endloop
 endfacet
 facet normal -0.55557 -0.83147 0
  outer loop
   vertex -33.4819 -43.6344 0
   vertex -27.5 -47.6314 8
   vertex -33.4819 -43.6344 8
  endloop
 endfacet
 facet normal 0.55557 0.83147 -0
  outer loop
   vertex -21 -36.3731 0
   vertex -25.568 -33.3208 0
   vertex -21 -36.3731 8
  endloop
 endfacet
 facet normal 0.55557 0.83147 -0
  outer loop
   vertex -25.568 -33.3208 0
   vertex -25.568 -33.3208 8
   vertex -21 -36.3731 8
  endloop
 endfacet
 facet normal -0 0 1
  outer loop
   vertex -33.4819 -43.6344 8
   vertex -27.5 -47.6314 8
   vertex -21 -36.3731 8
  endloop
 endfacet
 facet normal 0 0 1
  outer loop
   vertex -33.4819 -43.6344 8
   vertex -21 -36.3731 8
   vertex -25.568 -33.3208 8
  endloop
 endfacet
 facet normal 0 0 -1
  outer loop
   vertex -27.5 -47.6314 0
   vertex -33.4819 -43.6344 0
   vertex -21 -36.3731 0
  endloop
 endfacet
 facet normal 0 0 -1
  outer loop
   vertex -33.4819 -43.6344 0
   vertex -25.568 -33.3208 0
   vertex -21 -36.3731 0
  endloop
 endfacet
 facet normal -0.442289 -0.896873 0
  outer loop
   vertex -27.5 -47.6314 0
   vertex -21.0476 -50.8134 0
   vertex -21.0476 -50.8134 8
  endloop
 endfacet
 facet normal -0.442289 -0.896873 0
  outer loop
   vertex -27.5 -47.6314 0
   vertex -21.0476 -50.8134 8
   vertex -27.5 -47.6314 8
  endloop
 endfacet
 facet normal 0.442289 0.896873 -0
  outer loop
   vertex -16.0727 -38.8029 0
   vertex -21 -36.3731 0
   vertex -16.0727 -38.8029 8
  endloop
 endfacet
 facet normal 0.442289 0.896873 -0
  outer loop
   vertex -21 -36.3731 0
   vertex -21 -36.3731 8
   vertex -16.0727 -38.8029 8
  endloop
 endfacet
 facet normal -0 0 1
  outer loop
   vertex -27.5 -47.6314 8
   vertex -21.0476 -50.8134 8
   vertex -16.0727 -38.8029 8
  endloop
 endfacet
 facet normal 0 0 1
  outer loop
   vertex -27.5 -47.6314 8
   vertex -16.0727 -38.8029 8
   vertex -21 -36.3731 8
  endloop
 endfacet
 facet normal 0 0 -1
  outer loop
   vertex -21.0476 -50.8134 0
   vertex -27.5 -47.6314 0
   vertex -16.0727 -38.8029 0
  endloop
 endfacet
 facet normal 0 0 -1
  outer loop
   vertex -27.5 -47.6314 0
   vertex -21 -36.3731 0
   vertex -16.0727 -38.8029 0
  endloop
 endfacet
 facet normal -0.321439 -0.94693 0
  outer loop
   vertex -21.0476 -50.8134 0
   vertex -14.235 -53.1259 0
   vertex -14.235 -53.1259 8
  endloop
 endfacet
 facet normal -0.321439 -0.94693 0
  outer loop
   vertex -21.0476 -50.8134 0
   vertex -14.235 -53.1259 8
   vertex -21.0476 -50.8134 8
  endloop
 endfacet
 facet normal 0.321439 0.94693 -0
  outer loop
   vertex -10.8704 -40.5689 0
   vertex -16.0727 -38.8029 0
   vertex -10.8704 -40.5689 8
  endloop
 endfacet
 facet normal 0.321439 0.94693 -0
  outer loop
   vertex -16.0727 -38.8029 0
   vertex -16.0727 -38.8029 8
   vertex -10.8704 -40.5689 8
  endloop
 endfacet
 facet normal -0 0 1
  outer loop
   vertex -21.0476 -50.8134 8
   vertex -14.235 -53.1259 8
   vertex -10.8704 -40.5689 8
  endloop
 endfacet
 facet normal 0 0 1
  outer loop
   vertex -21.0476 -50.8134 8
   vertex -10.8704 -40.5689 8
   vertex -16.0727 -38.8029 8
  endloop
 endfacet
 facet normal 0 0 -1
  outer loop
   vertex -14.235 -53.1259 0
   vertex -21.0476 -50.8134 0
   vertex -10.8704 -40.5689 0
  endloop
 endfacet
 facet normal 0 0 -1
  outer loop
   vertex -21.0476 -50.8134 0
   vertex -16.0727 -38.8029 0
   vertex -10.8704 -40.5689 0
  endloop
 endfacet
 facet normal -0.19509 -0.980785 0
  outer loop
   vertex -14.235 -53.1259 0
   vertex -7.17894 -54.5295 0
   vertex -7.17894 -54.5295 8
  endloop
 endfacet
 facet normal -0.19509 -0.980785 0
  outer loop
   vertex -14.235 -53.1259 0
   vertex -7.17894 -54.5295 8
   vertex -14.235 -53.1259 8
  endloop
 endfacet
 facet normal 0.19509 0.980785 -0
  outer loop
   vertex -5.4821 -41.6407 0
   vertex -10.8704 -40.5689 0
   vertex -5.4821 -41.6407 8
  endloop
 endfacet
 facet normal 0.19509 0.980785 -0
  outer loop
   vertex -10.8704 -40.5689 0
   vertex -10.8704 -40.5689 8
   vertex -5.4821 -41.6407 8
  endloop
 endfacet
 facet normal -0 0 1
  outer loop
   vertex -14.235 -53.1259 8
   vertex -7.17894 -54.5295 8
   vertex -5.4821 -41.6407 8
  endloop
 endfacet
 facet normal 0 0 1
  outer loop
   vertex -14.235 -53.1259 8
   vertex -5.4821 -41.6407 8
   vertex -10.8704 -40.5689 8
  endloop
 endfacet
 facet normal 0 0 -1
  outer loop
   vertex -7.17894 -54.5295 0
   vertex -14.235 -53.1259 0
   vertex -5.4821 -41.6407 0
  endloop
 endfacet
 facet normal 0 0 -1
  outer loop
   vertex -14.235 -53.1259 0
   vertex -10.8704 -40.5689 0
   vertex -5.4821 -41.6407 0
  endloop
 endfacet
 facet normal -0.0654031 -0.997859 0
  outer loop
   vertex -7.17894 -54.5295 0
   vertex -1.01033e-14 -55 0
   vertex -1.01033e-14 -55 8
  endloop
 endfacet
 facet normal -0.0654031 -0.997859 0
  outer loop
   vertex -7.17894 -54.5295 0
   vertex -1.01033e-14 -55 8
   vertex -7.17894 -54.5295 8
  endloop
 endfacet
 facet normal 0.0654031 0.997859 -0
  outer loop
   vertex -7.71527e-15 -42 0
   vertex -5.4821 -41.6407 0
   vertex -7.71527e-15 -42 8
  endloop
 endfacet
 facet normal 0.0654031 0.997859 -0
  outer loop
   vertex -5.4821 -41.6407 0
   vertex -5.4821 -41.6407 8
   vertex -7.71527e-15 -42 8
  endloop
 endfacet
 facet normal -0 0 1
  outer loop
   vertex -7.17894 -54.5295 8
   vertex -1.01033e-14 -55 8
   vertex -7.71527e-15 -42 8
  endloop
 endfacet
 facet normal 0 0 1
  outer loop
   vertex -7.17894 -54.5295 8
   vertex -7.71527e-15 -42 8  
   vertex -5.4821 -41.6407 8
  endloop
 endfacet
 facet normal 0 0 -1
  outer loop
   vertex -1.01033e-14 -55 0
   vertex -7.17894 -54.5295 0
   vertex -7.71527e-15 -42 0
  endloop
 endfacet
 facet normal 0 0 -1
  outer loop
   vertex -7.17894 -54.5295 0
   vertex -5.4821 -41.6407 0
   vertex -7.71527e-15 -42 0
  endloop
 endfacet
 facet normal 0.0654031 -0.997859 0
  outer loop
   vertex -1.01033e-14 -55 0
   vertex 7.17894 -54.5295 0
   vertex 7.17894 -54.5295 8
  endloop
 endfacet
 facet normal 0.0654031 -0.997859 0
  outer loop
   vertex -1.01033e-14 -55 0
   vertex 7.17894 -54.5295 8
   vertex -1.01033e-14 -55 8
  endloop
 endfacet
 facet normal -0.0654031 0.997859 0
  outer loop
   vertex 5.4821 -41.6407 0
   vertex -7.71527e-15 -42 0
   vertex 5.4821 -41.6407 8
  endloop
 endfacet
 facet normal -0.0654031 0.997859 0
  outer loop
   vertex -7.71527e-15 -42 0
   vertex -7.71527e-15 -42 8
   vertex 5.4821 -41.6407 8
  endloop
 endfacet
 facet normal 0 0 1
  outer loop
   vertex -1.01033e-14 -55 8
   vertex 7.17894 -54.5295 8
   vertex 5.4821 -41.6407 8
  endloop
 endfacet
 facet normal 0 0 1
  outer loop
   vertex -1.01033e-14 -55 8
   vertex 5.4821 -41.6407 8
   vertex -7.71527e-15 -42 8
  endloop
 endfacet
 facet normal -0 0 -1
  outer loop
   vertex 7.17894 -54.5295 0
   vertex -1.01033e-14 -55 0
   vertex 5.4821 -41.6407 0
  endloop
 endfacet
 facet normal 0 0 -1
  outer loop
   vertex -1.01033e-14 -55 0
   vertex -7.71527e-15 -42 0
   vertex 5.4821 -41.6407 0
  endloop
 endfacet
 facet normal 0.19509 -0.980785 0
  outer loop
   vertex 7.17894 -54.5295 0
   vertex 14.235 -53.1259 0
   vertex 14.235 -53.1259 8
  endloop
 endfacet
 facet normal 0.19509 -0.980785 0
  outer loop
   vertex 7.17894 -54.5295 0
   vertex 14.235 -53.1259 8
   vertex 7.17894 -54.5295 8
  endloop
 endfacet
 facet normal -0.19509 0.980785 0
  outer loop
   vertex 10.8704 -40.5689 0
   vertex 5.4821 -41.6407 0
   vertex 10.8704 -40.5689 8
  endloop
 endfacet
 facet normal -0.19509 0.980785 0
  outer loop
   vertex 5.4821 -41.6407 0
   vertex 5.4821 -41.6407 8
   vertex 10.8704 -40.5689 8
  endloop
 endfacet
 facet normal 0 0 1
  outer loop
   vertex 7.17894 -54.5295 8
   vertex 14.235 -53.1259 8
   vertex 10.8704 -40.5689 8
  endloop
 endfacet
 facet normal 0 -0 1
  outer loop
   vertex 7.17894 -54.5295 8
   vertex 10.8704 -40.5689 8
   vertex 5.4821 -41.6407 8
  endloop
 endfacet
 facet normal -0 0 -1
  outer loop
   vertex 14.235 -53.1259 0
   vertex 7.17894 -54.5295 0
   vertex 10.8704 -40.5689 0
  endloop
 endfacet
 facet normal 0 0 -1
  outer loop
   vertex 7.17894 -54.5295 0
   vertex 5.4821 -41.6407 0
   vertex 10.8704 -40.5689 0
  endloop
 endfacet
 facet normal 0.321439 -0.94693 0
  outer loop
   vertex 14.235 -53.1259 0
   vertex 21.0476 -50.8134 0
   vertex 21.0476 -50.8134 8
  endloop
 endfacet
 facet normal 0.321439 -0.94693 0
  outer loop
   vertex 14.235 -53.1259 0
   vertex 21.0476 -50.8134 8
   vertex 14.235 -53.1259 8
  endloop
 endfacet
 facet normal -0.321439 0.94693 0
  outer loop
   vertex 16.0727 -38.8029 0
   vertex 10.8704 -40.5689 0
   vertex 16.0727 -38.8029 8
  endloop
 endfacet
 facet normal -0.321439 0.94693 0
  outer loop
   vertex 10.8704 -40.5689 0
   vertex 10.8704 -40.5689 8
   vertex 16.0727 -38.8029 8
  endloop
 endfacet
 facet normal 0 0 1
  outer loop
   vertex 14.235 -53.1259 8
   vertex 21.0476 -50.8134 8
   vertex 16.0727 -38.8029 8
  endloop
 endfacet
 facet normal 0 -0 1
  outer loop
   vertex 14.235 -53.1259 8
   vertex 16.0727 -38.8029 8
   vertex 10.8704 -40.5689 8
  endloop
 endfacet
 facet normal -0 0 -1
  outer loop
   vertex 21.0476 -50.8134 0
   vertex 14.235 -53.1259 0
   vertex 16.0727 -38.8029 0
  endloop
 endfacet
 facet normal 0 0 -1
  outer loop
   vertex 14.235 -53.1259 0
   vertex 10.8704 -40.5689 0
   vertex 16.0727 -38.8029 0
  endloop
 endfacet
 facet normal 0.442289 -0.896873 0
  outer loop
   vertex 21.0476 -50.8134 0
   vertex 27.5 -47.6314 0
   vertex 27.5 -47.6314 8
  endloop
 endfacet
 facet normal 0.442289 -0.896873 0
  outer loop
   vertex 21.0476 -50.8134 0
   vertex 27.5 -47.6314 8
   vertex 21.0476 -50.8134 8
  endloop
 endfacet
 facet normal -0.442289 0.896873 0
  outer loop
   vertex 21 -36.3731 0
   vertex 16.0727 -38.8029 0
   vertex 21 -36.3731 8
  endloop
 endfacet
 facet normal -0.442289 0.896873 0
  outer loop
   vertex 16.0727 -38.8029 0
   vertex 16.0727 -38.8029 8
   vertex 21 -36.3731 8
  endloop
 endfacet
 facet normal 0 -0 1
  outer loop
   vertex 21.0476 -50.8134 8
   vertex 27.5 -47.6314 8
   vertex 21 -36.3731 8
  endloop
 endfacet
 facet normal 0 0 1
  outer loop
   vertex 21.0476 -50.8134 8
   vertex 21 -36.3731 8
   vertex 16.0727 -38.8029 8
  endloop
 endfacet
 facet normal -0 0 -1
  outer loop
   vertex 27.5 -47.6314 0
   vertex 21.0476 -50.8134 0
   vertex 21 -36.3731 0
  endloop
 endfacet
 facet normal 0 0 -1
  outer loop
   vertex 21.0476 -50.8134 0
   vertex 16.0727 -38.8029 0
   vertex 21 -36.3731 0
  endloop
 endfacet
 facet normal 0.55557 -0.83147 0
  outer loop
   vertex 27.5 -47.6314 0
   vertex 33.4819 -43.6344 0
   vertex 33.4819 -43.6344 8
  endloop
 endfacet
 facet normal 0.55557 -0.83147 0
  outer loop
   vertex 27.5 -47.6314 0
   vertex 33.4819 -43.6344 8
   vertex 27.5 -47.6314 8
  endloop
 endfacet
 facet normal -0.55557 0.83147 0
  outer loop
   vertex 25.568 -33.3208 0
   vertex 21 -36.3731 0
   vertex 25.568 -33.3208 8
  endloop
 endfacet
 facet normal -0.55557 0.83147 0
  outer loop
   vertex 21 -36.3731 0
   vertex 21 -36.3731 8
   vertex 25.568 -33.3208 8
  endloop
 endfacet
 facet normal 0 -0 1
  outer loop
   vertex 27.5 -47.6314 8
   vertex 33.4819 -43.6344 8
   vertex 25.568 -33.3208 8
  endloop
 endfacet
 facet normal 0 0 1
  outer loop
   vertex 27.5 -47.6314 8
   vertex 25.568 -33.3208 8
   vertex 21 -36.3731 8
  endloop
 endfacet
 facet normal -0 0 -1
  outer loop
   vertex 33.4819 -43.6344 0
   vertex 27.5 -47.6314 0
   vertex 25.568 -33.3208 0
  endloop
 endfacet
 facet normal 0 0 -1
  outer loop
   vertex 27.5 -47.6314 0
   vertex 21 -36.3731 0
   vertex 25.568 -33.3208 0
  endloop
 endfacet
 facet normal 0.659346 -0.75184 0
  outer loop
   vertex 33.4819 -43.6344 0
   vertex 38.8909 -38.8909 0
   vertex 38.8909 -38.8909 8
  endloop
 endfacet
 facet normal 0.659346 -0.75184 0
  outer loop
   vertex 33.4819 -43.6344 0
   vertex 38.8909 -38.8909 8
   vertex 33.4819 -43.6344 8
  endloop
 endfacet
 facet normal -0.659346 0.75184 0
  outer loop
   vertex 29.6985 -29.6985 0
   vertex 25.568 -33.3208 0
   vertex 29.6985 -29.6985 8
  endloop
 endfacet
 facet normal -0.659346 0.75184 0
  outer loop
   vertex 25.568 -33.3208 0
   vertex 25.568 -33.3208 8
   vertex 29.6985 -29.6985 8
  endloop
 endfacet
 facet normal 0 -0 1
  outer loop
   vertex 33.4819 -43.6344 8
   vertex 38.8909 -38.8909 8
   vertex 29.6985 -29.6985 8
  endloop
 endfacet
 facet normal 0 0 1
  outer loop
   vertex 33.4819 -43.6344 8
   vertex 29.6985 -29.6985 8
   vertex 25.568 -33.3208 8
  endloop
 endfacet
 facet normal -0 0 -1
  outer loop
   vertex 38.8909 -38.8909 0
   vertex 33.4819 -43.6344 0
   vertex 29.6985 -29.6985 0
  endloop
 endfacet
 facet normal 0 0 -1
  outer loop
   vertex 33.4819 -43.6344 0
   vertex 25.568 -33.3208 0
   vertex 29.6985 -29.6985 0
  endloop
 endfacet
 facet normal 0.75184 -0.659346 0
  outer loop
   vertex 38.8909 -38.8909 0
   vertex 43.6344 -33.4819 0
   vertex 43.6344 -33.4819 8
  endloop
 endfacet
 facet normal 0.75184 -0.659346 0
  outer loop
   vertex 38.8909 -38.8909 0
   vertex 43.6344 -33.4819 8
   vertex 38.8909 -38.8909 8
  endloop
 endfacet
 facet normal -0.75184 0.659346 0
  outer loop
   vertex 33.3208 -25.568 0
   vertex 29.6985 -29.6985 0
   vertex 33.3208 -25.568 8
  endloop
 endfacet
 facet normal -0.75184 0.659346 0
  outer loop
   vertex 29.6985 -29.6985 0
   vertex 29.6985 -29.6985 8
   vertex 33.3208 -25.568 8
  endloop
 endfacet
 facet normal 0 -0 1
  outer loop
   vertex 38.8909 -38.8909 8
   vertex 43.6344 -33.4819 8
   vertex 33.3208 -25.568 8
  endloop
 endfacet
 facet normal 0 0 1
  outer loop
   vertex 38.8909 -38.8909 8
   vertex 33.3208 -25.568 8
   vertex 29.6985 -29.6985 8
  endloop
 endfacet
 facet normal -0 0 -1
  outer loop
   vertex 43.6344 -33.4819 0
   vertex 38.8909 -38.8909 0
   vertex 33.3208 -25.568 0
  endloop
 endfacet
 facet normal 0 0 -1
  outer loop
   vertex 38.8909 -38.8909 0
   vertex 29.6985 -29.6985 0
   vertex 33.3208 -25.568 0
  endloop
 endfacet
 facet normal 0.83147 -0.55557 0
  outer loop
   vertex 43.6344 -33.4819 0
   vertex 47.6314 -27.5 0
   vertex 47.6314 -27.5 8
  endloop
 endfacet
 facet normal 0.83147 -0.55557 0
  outer loop
   vertex 43.6344 -33.4819 0
   vertex 47.6314 -27.5 8
   vertex 43.6344 -33.4819 8
  endloop
 endfacet
 facet normal -0.83147 0.55557 0
  outer loop
   vertex 36.3731 -21 0
   vertex 33.3208 -25.568 0
   vertex 36.3731 -21 8
  endloop
 endfacet
 facet normal -0.83147 0.55557 0
  outer loop
   vertex 33.3208 -25.568 0
   vertex 33.3208 -25.568 8
   vertex 36.3731 -21 8
  endloop
 endfacet
 facet normal 0 -0 1
  outer loop
   vertex 43.6344 -33.4819 8
   vertex 47.6314 -27.5 8
   vertex 36.3731 -21 8
  endloop
 endfacet
 facet normal 0 0 1
  outer loop
   vertex 43.6344 -33.4819 8
   vertex 36.3731 -21 8
   vertex 33.3208 -25.568 8
  endloop
 endfacet
 facet normal -0 0 -1
  outer loop
   vertex 47.6314 -27.5 0
   vertex 43.6344 -33.4819 0
   vertex 36.3731 -21 0
  endloop
 endfacet
 facet normal 0 0 -1
  outer loop
   vertex 43.6344 -33.4819 0
   vertex 33.3208 -25.568 0
   vertex 36.3731 -21 0
  endloop
 endfacet
 facet normal 0.896873 -0.442289 0
  outer loop
   vertex 47.6314 -27.5 0
   vertex 50.8134 -21.0476 0
   vertex 50.8134 -21.0476 8
  endloop
 endfacet
 facet normal 0.896873 -0.442289 0
  outer loop
   vertex 47.6314 -27.5 0
   vertex 50.8134 -21.0476 8
   vertex 47.6314 -27.5 8
  endloop
 endfacet
 facet normal -0.896873 0.442289 0
  outer loop
   vertex 38.8029 -16.0727 0
   vertex 36.3731 -21 0
   vertex 38.8029 -16.0727 8
  endloop
 endfacet
 facet normal -0.896873 0.442289 0
  outer loop
   vertex 36.3731 -21 0
   vertex 36.3731 -21 8
   vertex 38.8029 -16.0727 8
  endloop
 endfacet
 facet normal 0 -0 1
  outer loop
   vertex 47.6314 -27.5 8
   vertex 50.8134 -21.0476 8
   vertex 38.8029 -16.0727 8
  endloop
 endfacet
 facet normal 0 0 1
  outer loop
   vertex 47.6314 -27.5 8
   vertex 38.8029 -16.0727 8
   vertex 36.3731 -21 8
  endloop
 endfacet
 facet normal -0 0 -1
  outer loop
   vertex 50.8134 -21.0476 0
   vertex 47.6314 -27.5 0
   vertex 38.8029 -16.0727 0
  endloop
 endfacet
 facet normal 0 0 -1
  outer loop
   vertex 47.6314 -27.5 0
   vertex 36.3731 -21 0
   vertex 38.8029 -16.0727 0
  endloop
 endfacet
 facet normal 0.94693 -0.321439 0
  outer loop
   vertex 50.8134 -21.0476 0
   vertex 53.1259 -14.235 0
   vertex 53.1259 -14.235 8
  endloop
 endfacet
 facet normal 0.94693 -0.321439 0
  outer loop
   vertex 50.8134 -21.0476 0
   vertex 53.1259 -14.235 8
   vertex 50.8134 -21.0476 8
  endloop
 endfacet
 facet normal -0.94693 0.321439 0
  outer loop
   vertex 40.5689 -10.8704 0
   vertex 38.8029 -16.0727 0
   vertex 40.5689 -10.8704 8
  endloop
 endfacet
 facet normal -0.94693 0.321439 0
  outer loop
   vertex 38.8029 -16.0727 0
   vertex 38.8029 -16.0727 8
   vertex 40.5689 -10.8704 8
  endloop
 endfacet
 facet normal 0 -0 1
  outer loop
   vertex 50.8134 -21.0476 8
   vertex 53.1259 -14.235 8
   vertex 40.5689 -10.8704 8
  endloop
 endfacet
 facet normal 0 0 1
  outer loop
   vertex 50.8134 -21.0476 8
   vertex 40.5689 -10.8704 8
   vertex 38.8029 -16.0727 8
  endloop
 endfacet
 facet normal -0 0 -1
  outer loop
   vertex 53.1259 -14.235 0
   vertex 50.8134 -21.0476 0
   vertex 40.5689 -10.8704 0
  endloop
 endfacet
 facet normal 0 0 -1
  outer loop
   vertex 50.8134 -21.0476 0
   vertex 38.8029 -16.0727 0
   vertex 40.5689 -10.8704 0
  endloop
 endfacet
 facet normal 0.980785 -0.19509 0
  outer loop
   vertex 53.1259 -14.235 0
   vertex 54.5295 -7.17894 0
   vertex 54.5295 -7.17894 8
  endloop
 endfacet
 facet normal 0.980785 -0.19509 0
  outer loop
   vertex 53.1259 -14.235 0
   vertex 54.5295 -7.17894 8
   vertex 53.1259 -14.235 8
  endloop
 endfacet
 facet normal -0.980785 0.19509 0
  outer loop
   vertex 41.6407 -5.4821 0
   vertex 40.5689 -10.8704 0
   vertex 41.6407 -5.4821 8
  endloop
 endfacet
 facet normal -0.980785 0.19509 0
  outer loop
   vertex 40.5689 -10.8704 0
   vertex 40.5689 -10.8704 8
   vertex 41.6407 -5.4821 8
  endloop
 endfacet
 facet normal 0 -0 1
  outer loop
   vertex 53.1259 -14.235 8
   vertex 54.5295 -7.17894 8
   vertex 41.6407 -5.4821 8
  endloop
 endfacet
 facet normal 0 0 1
  outer loop
   vertex 53.1259 -14.235 8
   vertex 41.6407 -5.4821 8
   vertex 40.5689 -10.8704 8
  endloop
 endfacet
 facet normal -0 0 -1
  outer loop
   vertex 54.5295 -7.17894 0
   vertex 53.1259 -14.235 0
   vertex 41.6407 -5.4821 0
  endloop
 endfacet
 facet normal 0 0 -1
  outer loop
   vertex 53.1259 -14.235 0
   vertex 40.5689 -10.8704 0
   vertex 41.6407 -5.4821 0
  endloop
 endfacet
 facet normal 0.997859 -0.0654031 0
  outer loop
   vertex 54.5295 -7.17894 0
   vertex 55 0 0
   vertex 55 0 8
  endloop
 endfacet
 facet normal 0.997859 -0.0654031 0
  outer loop
   vertex 54.5295 -7.17894 0
   vertex 55 0 8
   vertex 54.5295 -7.17894 8
  endloop
 endfacet
 facet normal -0.997859 0.0654031 0
  outer loop
   vertex 42 0 0
   vertex 41.6407 -5.4821 0
   vertex 42 0 8
  endloop
 endfacet
 facet normal -0.997859 0.0654031 0
  outer loop
   vertex 41.6407 -5.4821 0
   vertex 41.6407 -5.4821 8
   vertex 42 0 8
  endloop
 endfacet
 facet normal 0 -0 1
  outer loop
   vertex 54.5295 -7.17894 8
   vertex 55 0 8
   vertex 42 0 8
  endloop
 endfacet
 facet normal 0 0 1
  outer loop
   vertex 54.5295 -7.17894 8
   vertex 42 0 8
   vertex 41.6407 -5.4821 8
  endloop
 endfacet
 facet normal -0 0 -1
  outer loop
   vertex 55 0 0
   vertex 54.5295 -7.17894 0
   vertex 42 0 0
  endloop
 endfacet
 facet normal 0 0 -1
  outer loop
   vertex 54.5295 -7.17894 0
   vertex 41.6407 -5.4821 0
   vertex 42 0 0
  endloop
 endfacet
 facet normal 0 0 1
  outer loop
   vertex 37 -9 -31
   vertex 49 -9 -31
   vertex 49 9 -31
  endloop
 endfacet
 facet normal 0 0 1
  outer loop
   vertex 37 -9 -31
   vertex 49 9 -31
   vertex 37 9 -31
  endloop
 endfacet
 facet normal 0 0 -1
  outer loop
   vertex 37 -9 4
   vertex 49 9 4
   vertex 49 -9 4
  endloop
 endfacet
 facet normal 0 0 -1
  outer loop
   vertex 37 -9 4
   vertex 37 9 4
   vertex 49 9 4
  endloop
 endfacet
 facet normal 0 -1 0
  outer loop
   vertex 37 -9 -31
   vertex 49 -9 -31
   vertex 49 -9 4
  endloop
 endfacet
 facet normal 0 -1 0
  outer loop
   vertex 37 -9 -31
   vertex 49 -9 4
   vertex 37 -9 4
  endloop
 endfacet
 facet normal 1 0 0
  outer loop
   vertex 49 -9 -31
   vertex 49 9 -31
   vertex 49 9 4
  endloop
 endfacet
 facet normal 1 0 0
  outer loop
   vertex 49 -9 -31
   vertex 49 9 4
   vertex 49 -9 4
  endloop
 endfacet
 facet normal 0 1 0
  outer loop
   vertex 49 9 -31
   vertex 37 9 -31
   vertex 37 9 4
  endloop
 endfacet
 facet normal 0 1 -0
  outer loop
   vertex 49 9 -31
   vertex 37 9 4
   vertex 49 9 4
  endloop
 endfacet
 facet normal -1 0 0
  outer loop
   vertex 37 9 -31
   vertex 37 -9 -31
   vertex 37 -9 4
  endloop
 endfacet
 facet normal -1 0 0
  outer loop
   vertex 37 9 -31
   vertex 37 -9 4
   vertex 37 9 4
  endloop
 endfacet
 facet normal 0 0 1
  outer loop
   vertex -10.7058 36.5429 -31
   vertex -16.7058 46.9352 -31
   vertex -32.2942 37.9352 -31
  endloop
 endfacet
 facet normal 0 0 1
  outer loop
   vertex -10.7058 36.5429 -31
   vertex -32.2942 37.9352 -31
   vertex -26.2942 27.5429 -31
  endloop
 endfacet
 facet normal 0 0 -1
  outer loop
   vertex -10.7058 36.5429 4
   vertex -32.2942 37.9352 4
   vertex -16.7058 46.9352 4
  endloop
 endfacet
 facet normal -0 0 -1
  outer loop
   vertex -10.7058 36.5429 4
   vertex -26.2942 27.5429 4
   vertex -32.2942 37.9352 4
  endloop
 endfacet
 facet normal 0.866025 0.5 0
  outer loop
   vertex -10.7058 36.5429 -31
   vertex -16.7058 46.9352 -31
   vertex -16.7058 46.9352 4
  endloop
 endfacet
 facet normal 0.866025 0.5 -0
  outer loop
   vertex -10.7058 36.5429 -31
   vertex -16.7058 46.9352 4
   vertex -10.7058 36.5429 4
  endloop
 endfacet
 facet normal -0.5 0.866025 0
  outer loop
   vertex -16.7058 46.9352 -31
   vertex -32.2942 37.9352 -31
   vertex -32.2942 37.9352 4
  endloop
 endfacet
 facet normal -0.5 0.866025 0
  outer loop
   vertex -16.7058 46.9352 -31
   vertex -32.2942 37.9352 4
   vertex -16.7058 46.9352 4
  endloop
 endfacet
 facet normal -0.866025 -0.5 0
  outer loop
   vertex -32.2942 37.9352 -31
   vertex -26.2942 27.5429 -31
   vertex -26.2942 27.5429 4
  endloop
 endfacet
 facet normal -0.866025 -0.5 0
  outer loop
   vertex -32.2942 37.9352 -31
   vertex -26.2942 27.5429 4
   vertex -32.2942 37.9352 4
  endloop
 endfacet
 facet normal 0.5 -0.866025 0
  outer loop
   vertex -26.2942 27.5429 -31
   vertex -10.7058 36.5429 -31
   vertex -10.7058 36.5429 4
  endloop
 endfacet
 facet normal 0.5 -0.866025 0
  outer loop
   vertex -26.2942 27.5429 -31
   vertex -10.7058 36.5429 4
   vertex -26.2942 27.5429 4
  endloop
 endfacet
 facet normal 0 0 1
  outer loop
   vertex -26.2942 -27.5429 -31
   vertex -32.2942 -37.9352 -31
   vertex -16.7058 -46.9352 -31
  endloop
 endfacet
 facet normal 0 0 1
  outer loop
   vertex -26.2942 -27.5429 -31
   vertex -16.7058 -46.9352 -31
   vertex -10.7058 -36.5429 -31
  endloop
 endfacet
 facet normal 0 -0 -1
  outer loop
   vertex -26.2942 -27.5429 4
   vertex -16.7058 -46.9352 4
   vertex -32.2942 -37.9352 4
  endloop
 endfacet
 facet normal 0 0 -1
  outer loop
   vertex -26.2942 -27.5429 4
   vertex -10.7058 -36.5429 4
   vertex -16.7058 -46.9352 4
  endloop
 endfacet
 facet normal -0.866025 0.5 0
  outer loop
   vertex -26.2942 -27.5429 -31
   vertex -32.2942 -37.9352 -31
   vertex -32.2942 -37.9352 4
  endloop
 endfacet
 facet normal -0.866025 0.5 0
  outer loop
   vertex -26.2942 -27.5429 -31
   vertex -32.2942 -37.9352 4
   vertex -26.2942 -27.5429 4
  endloop
 endfacet
 facet normal -0.5 -0.866025 0
  outer loop
   vertex -32.2942 -37.9352 -31
   vertex -16.7058 -46.9352 -31
   vertex -16.7058 -46.9352 4
  endloop
 endfacet
 facet normal -0.5 -0.866025 0
  outer loop
   vertex -32.2942 -37.9352 -31
   vertex -16.7058 -46.9352 4
   vertex -32.2942 -37.9352 4
  endloop
 endfacet
 facet normal 0.866025 -0.5 0
  outer loop
   vertex -16.7058 -46.9352 -31
   vertex -10.7058 -36.5429 -31
   vertex -10.7058 -36.5429 4
  endloop
 endfacet
 facet normal 0.866025 -0.5 0
  outer loop
   vertex -16.7058 -46.9352 -31
   vertex -10.7058 -36.5429 4
   vertex -16.7058 -46.9352 4
  endloop
 endfacet
 facet normal 0.5 0.866025 0
  outer loop
   vertex -10.7058 -36.5429 -31
   vertex -26.2942 -27.5429 -31
   vertex -26.2942 -27.5429 4
  endloop
 endfacet
 facet normal 0.5 0.866025 -0
  outer loop
   vertex -10.7058 -36.5429 -31
   vertex -26.2942 -27.5429 4
   vertex -10.7058 -36.5429 4
  endloop
 endfacet
endsolid Pot_Stand